<svg width="15.000000" height="11.250000" viewBox="0 0 15 11.25" fill="none" xmlns="http://www.w3.org/2000/svg" xmlns:xlink="http://www.w3.org/1999/xlink">
	<desc>
			Created with Pixso.
	</desc>
	<defs/>
	<path id="Vector" d="M8.99475 10.6239C8.99475 10.79 9.05798 10.9492 9.17065 11.0666C9.2832 11.184 9.43604 11.25 9.59521 11.25L14.3994 11.25C14.5587 11.25 14.7115 11.184 14.8241 11.0666C14.9368 10.9492 15 10.79 15 10.6239L15 5.61555C15 5.44952 14.9368 5.29028 14.8241 5.17288C14.7115 5.05547 14.5587 4.9895 14.3994 4.9895C14.2402 4.9895 14.0874 5.05547 13.9749 5.17288C13.8622 5.29028 13.799 5.44952 13.799 5.61555L13.799 8.87102L9.45959 3.3405C9.40637 3.2729 9.34033 3.21765 9.2655 3.17829C9.19067 3.13894 9.10876 3.11635 9.02502 3.11198C8.94128 3.10762 8.85767 3.12157 8.77942 3.15295C8.70117 3.18433 8.63013 3.23244 8.5708 3.29417L5.46362 6.53334L1.07263 0.239052C0.976562 0.111717 0.836792 0.0281525 0.682983 0.00592041C0.529053 -0.016304 0.372803 0.0245361 0.247192 0.11985C0.121582 0.215172 0.0362549 0.357552 0.00915527 0.517075C-0.0178223 0.67659 0.0153809 0.840836 0.102173 0.975281L4.90637 7.86182C4.95728 7.93506 5.02295 7.99588 5.09863 8.04013C5.17444 8.08438 5.25842 8.11099 5.34497 8.11813C5.43152 8.12527 5.51843 8.11278 5.59985 8.0815C5.6814 8.05022 5.75537 8.0009 5.81677 7.93695L8.95032 4.66898L13.1323 9.99789L9.59521 9.99789C9.43604 9.99789 9.2832 10.0639 9.17065 10.1813C9.05798 10.2987 8.99475 10.4579 8.99475 10.6239Z" fill="#F03D3D" fill-opacity="1.000000" fill-rule="evenodd"/>
</svg>
