<svg width="32.000000" height="32.000000" viewBox="0 0 32 32" fill="none" xmlns="http://www.w3.org/2000/svg" xmlns:xlink="http://www.w3.org/1999/xlink">
	<desc>
			Created with Pixso.
	</desc>
	<defs>
		<clipPath id="clip270505_337">
			<rect id="aside-open" width="32.000000" height="32.000000" fill="white" fill-opacity="0"/>
		</clipPath>
	</defs>
	<rect id="aside-open" width="32.000000" height="32.000000" fill="#FFFFFF" fill-opacity="0"/>
	<g clip-path="url(#clip270505_337)">
		<path id="Vector" d="M5.02002 16.98L5 17C4.44 17 4 16.56 4 16C4 15.44 4.44 15 5 15L5.02002 15.02L5.02002 16.98ZM26.98 15.02L27 15C27.56 15 28 15.44 28 16C28 16.56 27.56 17 27 17L26.98 16.98L26.98 15.02Z" fill="#272727" fill-opacity="1.000000" fill-rule="nonzero"/>
		<path id="Vector" d="M5 16L27 16" stroke="#272727" stroke-opacity="1.000000" stroke-width="2.000000" stroke-linejoin="round" stroke-linecap="round"/>
		<path id="Vector" d="M5.02002 8.98001L5 9C4.44 9 4 8.56 4 8C4 7.44 4.44 7 5 7L5.02002 7.01999L5.02002 8.98001ZM26.98 7.01999L27 7C27.56 7 28 7.44 28 8C28 8.56 27.56 9 27 9L26.98 8.98001L26.98 7.01999Z" fill="#272727" fill-opacity="1.000000" fill-rule="nonzero"/>
		<path id="Vector" d="M5 8L27 8" stroke="#272727" stroke-opacity="1.000000" stroke-width="2.000000" stroke-linejoin="round" stroke-linecap="round"/>
		<path id="Vector" d="M5.02002 24.98L5 25C4.44 25 4 24.56 4 24C4 23.44 4.44 23 5 23L5.02002 23.02L5.02002 24.98ZM26.98 23.02L27 23C27.56 23 28 23.44 28 24C28 24.56 27.56 25 27 25L26.98 24.98L26.98 23.02Z" fill="#272727" fill-opacity="1.000000" fill-rule="nonzero"/>
		<path id="Vector" d="M5 24L27 24" stroke="#272727" stroke-opacity="1.000000" stroke-width="2.000000" stroke-linejoin="round" stroke-linecap="round"/>
	</g>
</svg>
