<svg width="15.000000" height="11.250000" viewBox="0 0 15 11.25" fill="none" xmlns="http://www.w3.org/2000/svg" xmlns:xlink="http://www.w3.org/1999/xlink">
	<desc>
			Created with Pixso.
	</desc>
	<defs/>
	<path id="Vector" d="M8.99463 0.626053C8.99463 0.460007 9.05811 0.300774 9.17065 0.183365C9.2832 0.0659561 9.43604 0 9.59521 0L14.3994 0C14.5588 0 14.7114 0.0659561 14.8242 0.183365C14.9368 0.300774 15 0.460007 15 0.626053L15 5.63445C15 5.80048 14.9368 5.95972 14.8242 6.07712C14.7114 6.19453 14.5588 6.2605 14.3994 6.2605C14.2402 6.2605 14.0874 6.19453 13.9749 6.07712C13.8623 5.95972 13.7988 5.80048 13.7988 5.63445L13.7988 2.37899L9.45947 7.9095C9.40649 7.9771 9.34033 8.03235 9.26538 8.07172C9.19067 8.11107 9.10864 8.13365 9.0249 8.13802C8.94116 8.14238 8.85767 8.12842 8.7793 8.09705C8.70117 8.06567 8.63013 8.01756 8.5708 7.95583L5.46362 4.71665L1.07251 11.011C0.976562 11.1383 0.836914 11.2218 0.682861 11.2441C0.529053 11.2663 0.372803 11.2255 0.24707 11.1301C0.121582 11.0348 0.0361328 10.8925 0.00927734 10.7329C-0.0178223 10.5734 0.0153809 10.4092 0.102051 10.2747L4.90625 3.38818C4.95728 3.31495 5.02295 3.25411 5.09863 3.20986C5.17432 3.16561 5.2583 3.139 5.34497 3.13186C5.4314 3.12472 5.51855 3.13722 5.59985 3.1685C5.6814 3.19978 5.75537 3.2491 5.81665 3.31305L8.9502 6.58102L13.1323 1.2521L9.59521 1.2521C9.43604 1.2521 9.2832 1.18614 9.17065 1.06873C9.05811 0.951324 8.99463 0.792091 8.99463 0.626053Z" fill="#0BB07B" fill-opacity="1.000000" fill-rule="evenodd"/>
</svg>
